<svg width="23" height="16" viewBox="0 0 23 16" fill="none" xmlns="http://www.w3.org/2000/svg">
<path d="M22.4001 0.199219H0.800293C0.500293 0.199219 0.200195 0.399194 0.200195 0.799194V14.7992C0.200195 15.0992 0.400293 15.3992 0.800293 15.3992H22.4001C22.7001 15.3992 23.0002 15.1992 23.0002 14.7992V0.799194C23.0002 0.399194 22.8001 0.199219 22.4001 0.199219ZM18.3003 9.8992C18.1003 9.6992 17.7002 9.6992 17.5002 9.8992C17.3002 10.0992 17.3002 10.4992 17.5002 10.6992L21.0002 14.1992H2.2002L5.7002 10.6992C5.9002 10.4992 5.9002 10.0992 5.7002 9.8992C5.5002 9.6992 5.10015 9.6992 4.90015 9.8992L1.40015 13.3992V1.79919L10.6003 7.69922C11.2003 8.09922 12.0003 8.09922 12.6003 7.69922L21.9001 1.79919V13.3992L18.3003 9.8992ZM2.7002 1.29919H20.7002L12.0002 6.8992C11.8002 7.0992 11.5002 7.0992 11.2002 6.8992L2.7002 1.29919Z" fill="#939292"/>
</svg>
