<svg width="24" height="29" viewBox="0 0 24 29" fill="none" xmlns="http://www.w3.org/2000/svg">
<path d="M19.8994 9.59845H18.9995V4.39844C18.9995 2.49844 17.3995 0.898438 15.4995 0.898438H8.49951C6.59951 0.898438 4.99951 2.49844 4.99951 4.39844V9.59845H4.09961C2.19961 9.59845 0.599609 11.1985 0.599609 13.0984V25.2984C0.599609 27.1984 2.19961 28.7984 4.09961 28.7984H19.7996C21.6996 28.7984 23.2996 27.1984 23.2996 25.2984V13.0984C23.3996 11.1985 21.7994 9.59845 19.8994 9.59845ZM6.79956 4.39844C6.79956 3.39844 7.59951 2.69846 8.49951 2.69846H15.4995C16.4995 2.69846 17.1995 3.49844 17.1995 4.39844V9.59845H6.69946V4.39844H6.79956ZM21.5996 25.2984C21.5996 26.2984 20.7994 26.9984 19.8994 26.9984H4.19946C3.19946 26.9984 2.49951 26.1984 2.49951 25.2984V13.0984C2.49951 12.0984 3.29946 11.3984 4.19946 11.3984H19.8994C20.8994 11.3984 21.5996 12.1985 21.5996 13.0984V25.2984ZM11.9995 14.8985C10.5995 14.8985 9.39941 16.0984 9.39941 17.4984C9.39941 18.5984 10.0995 19.5984 11.1995 19.9984C11.1995 20.0984 11.1995 20.0985 11.1995 20.1985V22.7984C11.1995 23.2984 11.5996 23.6985 12.0996 23.6985C12.5996 23.6985 12.9995 23.2984 12.9995 22.7984V20.1985C12.9995 20.0985 12.9995 20.0984 12.9995 19.9984C13.9995 19.5984 14.7996 18.6984 14.7996 17.4984C14.5996 15.9984 13.4995 14.8985 11.9995 14.8985ZM11.9995 18.2984C11.4995 18.2984 11.0996 17.8985 11.0996 17.3985C11.0996 16.8985 11.4995 16.4984 11.9995 16.4984C12.4995 16.4984 12.8994 16.8985 12.8994 17.3985C12.8994 17.8985 12.4995 18.2984 11.9995 18.2984Z" fill="#939292"/>
</svg>
