<svg width="28" height="19" viewBox="0 0 28 19" fill="none" xmlns="http://www.w3.org/2000/svg">
<path d="M22.6996 0.101562H4.69958C2.19958 0.101562 0.0996094 2.20154 0.0996094 4.70154V14.3016C0.0996094 16.8016 2.19958 18.9016 4.69958 18.9016H22.6996C25.1996 18.9016 27.2997 16.8016 27.2997 14.3016V4.70154C27.2997 2.10154 25.2996 0.101562 22.6996 0.101562ZM19.0996 9.70154L10.8997 13.9016C10.7997 14.0016 10.6996 13.9016 10.5996 13.8016V13.7015V5.30164C10.5996 5.20164 10.6997 5.10156 10.7997 5.10156H10.8997L19.0996 9.30164C19.1996 9.40164 19.1996 9.50154 19.0996 9.70154C19.0996 9.60154 19.0996 9.70154 19.0996 9.70154Z" fill="#3F69AA"/>
</svg>
